<svg xmlns="http://www.w3.org/2000/svg" xmlns:xlink="http://www.w3.org/1999/xlink" width="1080" zoomAndPan="magnify" viewBox="0 0 810 809.999993" height="1080" preserveAspectRatio="xMidYMid meet" version="1.0"><defs><clipPath id="821f8d3f2a"><path d="M 219.960938 0.523438 L 721.042969 0.523438 L 721.042969 501.605469 L 219.960938 501.605469 Z M 219.960938 0.523438 " clip-rule="nonzero"/></clipPath><clipPath id="0287f19f11"><path d="M 470.503906 0.523438 C 332.132812 0.523438 219.960938 112.695312 219.960938 251.066406 C 219.960938 389.433594 332.132812 501.605469 470.503906 501.605469 C 608.875 501.605469 721.042969 389.433594 721.042969 251.066406 C 721.042969 112.695312 608.875 0.523438 470.503906 0.523438 Z M 470.503906 0.523438 " clip-rule="nonzero"/></clipPath><clipPath id="eab407d096"><path d="M 0.960938 0.523438 L 502.042969 0.523438 L 502.042969 501.605469 L 0.960938 501.605469 Z M 0.960938 0.523438 " clip-rule="nonzero"/></clipPath><clipPath id="eda4cb7755"><path d="M 251.503906 0.523438 C 113.132812 0.523438 0.960938 112.695312 0.960938 251.066406 C 0.960938 389.433594 113.132812 501.605469 251.503906 501.605469 C 389.875 501.605469 502.042969 389.433594 502.042969 251.066406 C 502.042969 112.695312 389.875 0.523438 251.503906 0.523438 Z M 251.503906 0.523438 " clip-rule="nonzero"/></clipPath><clipPath id="15c1fc2914"><rect x="0" width="503" y="0" height="502"/></clipPath><clipPath id="add85f4dda"><path d="M 0.957031 220.394531 L 502.039062 220.394531 L 502.039062 721.476562 L 0.957031 721.476562 Z M 0.957031 220.394531 " clip-rule="nonzero"/></clipPath><clipPath id="5b371bb78e"><path d="M 251.496094 220.394531 C 113.125 220.394531 0.957031 332.566406 0.957031 470.933594 C 0.957031 609.304688 113.125 721.476562 251.496094 721.476562 C 389.867188 721.476562 502.039062 609.304688 502.039062 470.933594 C 502.039062 332.566406 389.867188 220.394531 251.496094 220.394531 Z M 251.496094 220.394531 " clip-rule="nonzero"/></clipPath><clipPath id="ff1963dd5f"><path d="M 0.957031 0.394531 L 502.039062 0.394531 L 502.039062 501.476562 L 0.957031 501.476562 Z M 0.957031 0.394531 " clip-rule="nonzero"/></clipPath><clipPath id="da454171a0"><path d="M 251.496094 0.394531 C 113.125 0.394531 0.957031 112.566406 0.957031 250.933594 C 0.957031 389.304688 113.125 501.476562 251.496094 501.476562 C 389.867188 501.476562 502.039062 389.304688 502.039062 250.933594 C 502.039062 112.566406 389.867188 0.394531 251.496094 0.394531 Z M 251.496094 0.394531 " clip-rule="nonzero"/></clipPath><clipPath id="43c40442ae"><rect x="0" width="503" y="0" height="502"/></clipPath><clipPath id="06444f915e"><rect x="0" width="722" y="0" height="722"/></clipPath></defs><g transform="matrix(1, 0, 0, 1, 44, 44)"><g clip-path="url(#06444f915e)"><g clip-path="url(#821f8d3f2a)"><g clip-path="url(#0287f19f11)"><g transform="matrix(1, 0, 0, 1, 219, 0.000000000000035527)"><g clip-path="url(#15c1fc2914)"><g clip-path="url(#eab407d096)"><g clip-path="url(#eda4cb7755)"><path fill="#ff5347" d="M 0.960938 0.523438 L 502.042969 0.523438 L 502.042969 501.605469 L 0.960938 501.605469 Z M 0.960938 0.523438 " fill-opacity="1" fill-rule="nonzero"/></g></g></g></g></g></g><g clip-path="url(#add85f4dda)"><g clip-path="url(#5b371bb78e)"><g transform="matrix(1, 0, 0, 1, -0.000000000000007105, 220)"><g clip-path="url(#43c40442ae)"><g clip-path="url(#ff1963dd5f)"><g clip-path="url(#da454171a0)"><path fill="#000000" d="M 0.957031 0.394531 L 502.039062 0.394531 L 502.039062 501.476562 L 0.957031 501.476562 Z M 0.957031 0.394531 " fill-opacity="1" fill-rule="nonzero"/></g></g></g></g></g></g></g></g></svg>