<svg xmlns="http://www.w3.org/2000/svg" xmlns:xlink="http://www.w3.org/1999/xlink" width="1080" zoomAndPan="magnify" viewBox="0 0 810 809.999993" height="1080" preserveAspectRatio="xMidYMid meet" version="1.0"><defs><clipPath id="454e0a1a66"><path d="M 241.734375 0.160156 L 793.363281 0.160156 L 793.363281 551.789062 L 241.734375 551.789062 Z M 241.734375 0.160156 " clip-rule="nonzero"/></clipPath><clipPath id="f4c3d43d61"><path d="M 517.546875 0.160156 C 365.222656 0.160156 241.734375 123.648438 241.734375 275.976562 C 241.734375 428.304688 365.222656 551.789062 517.546875 551.789062 C 669.875 551.789062 793.363281 428.304688 793.363281 275.976562 C 793.363281 123.648438 669.875 0.160156 517.546875 0.160156 Z M 517.546875 0.160156 " clip-rule="nonzero"/></clipPath><clipPath id="6d28e071ba"><path d="M 0.734375 0.160156 L 552.363281 0.160156 L 552.363281 551.789062 L 0.734375 551.789062 Z M 0.734375 0.160156 " clip-rule="nonzero"/></clipPath><clipPath id="f5c794ff46"><path d="M 276.546875 0.160156 C 124.222656 0.160156 0.734375 123.648438 0.734375 275.976562 C 0.734375 428.304688 124.222656 551.789062 276.546875 551.789062 C 428.875 551.789062 552.363281 428.304688 552.363281 275.976562 C 552.363281 123.648438 428.875 0.160156 276.546875 0.160156 Z M 276.546875 0.160156 " clip-rule="nonzero"/></clipPath><clipPath id="9e6e22f2bc"><rect x="0" width="553" y="0" height="552"/></clipPath><clipPath id="f347d47762"><path d="M 0.636719 242.210938 L 552.265625 242.210938 L 552.265625 793.839844 L 0.636719 793.839844 Z M 0.636719 242.210938 " clip-rule="nonzero"/></clipPath><clipPath id="c1ab0c2f18"><path d="M 276.453125 242.210938 C 124.125 242.210938 0.636719 365.695312 0.636719 518.023438 C 0.636719 670.351562 124.125 793.839844 276.453125 793.839844 C 428.777344 793.839844 552.265625 670.351562 552.265625 518.023438 C 552.265625 365.695312 428.777344 242.210938 276.453125 242.210938 Z M 276.453125 242.210938 " clip-rule="nonzero"/></clipPath><clipPath id="b4e9758507"><path d="M 0.636719 0.210938 L 552.265625 0.210938 L 552.265625 551.839844 L 0.636719 551.839844 Z M 0.636719 0.210938 " clip-rule="nonzero"/></clipPath><clipPath id="ab223aeba6"><path d="M 276.453125 0.210938 C 124.125 0.210938 0.636719 123.695312 0.636719 276.023438 C 0.636719 428.351562 124.125 551.839844 276.453125 551.839844 C 428.777344 551.839844 552.265625 428.351562 552.265625 276.023438 C 552.265625 123.695312 428.777344 0.210938 276.453125 0.210938 Z M 276.453125 0.210938 " clip-rule="nonzero"/></clipPath><clipPath id="0cf105183b"><rect x="0" width="553" y="0" height="552"/></clipPath><clipPath id="056a6cef69"><rect x="0" width="794" y="0" height="794"/></clipPath></defs><g transform="matrix(1, 0, 0, 1, 8, 8)"><g clip-path="url(#056a6cef69)"><g clip-path="url(#454e0a1a66)"><g clip-path="url(#f4c3d43d61)"><g transform="matrix(1, 0, 0, 1, 241, 0.00000000000003908)"><g clip-path="url(#9e6e22f2bc)"><g clip-path="url(#6d28e071ba)"><g clip-path="url(#f5c794ff46)"><path fill="#ff5347" d="M 0.734375 0.160156 L 552.363281 0.160156 L 552.363281 551.789062 L 0.734375 551.789062 Z M 0.734375 0.160156 " fill-opacity="1" fill-rule="nonzero"/></g></g></g></g></g></g><g clip-path="url(#f347d47762)"><g clip-path="url(#c1ab0c2f18)"><g transform="matrix(1, 0, 0, 1, 0.000000000000001776, 242)"><g clip-path="url(#0cf105183b)"><g clip-path="url(#b4e9758507)"><g clip-path="url(#ab223aeba6)"><path fill="#ffffff" d="M 0.636719 0.210938 L 552.265625 0.210938 L 552.265625 551.839844 L 0.636719 551.839844 Z M 0.636719 0.210938 " fill-opacity="1" fill-rule="nonzero"/></g></g></g></g></g></g></g></g></svg>